<?xml version="1.0" encoding="utf-8"?>
<!-- Svg Vector Icons : http://www.onlinewebfonts.com/icon -->
<!DOCTYPE svg PUBLIC "-//W3C//DTD SVG 1.1//EN" "http://www.w3.org/Graphics/SVG/1.1/DTD/svg11.dtd">
<svg version="1.1" xmlns="http://www.w3.org/2000/svg" xmlns:xlink="http://www.w3.org/1999/xlink" x="0px" y="0px" viewBox="0 0 256 256" enable-background="new 0 0 256 256" xml:space="preserve">
<metadata> Svg Vector Icons : http://www.onlinewebfonts.com/icon </metadata>
<g><g><path fill="#000000" d="M154.8,223.3c-36.6,0-68.1-21-82.6-51.3c-5.4-10.4-11.7-16-17.1-18.3c-14.8-7.2-34.3,0.8-31.3,23.7c1,22.1,30.1,26.6,27.1,5.7c0.4-7.1,9.8-9.6,13-0.8c9.4,25.7-32.1,40.9-48.5,13c-16.4-27.9,6.4-74.1,47.8-52.2c8.8,4.5,16.3,13.8,22.7,27.3c13,24.1,39,40.6,68.9,40.6c43,0,77.9-33.9,77.9-75.8c0-41.9-34.8-75.8-77.9-75.8c-40,0-72.9,29.3-77.4,67.1c-0.2,1.7-9.4,3.5-13.5,1.3c3.5-45.9,42.8-82,90.9-82c50.4,0,91.2,39.7,91.2,88.8C246,183.5,205.2,223.3,154.8,223.3z"/><path fill="#000000" d="M86.1,45.7L86.1,45.7c7.3,0,20.2,3.6,32.2,7.8c-6,2.9-12.4,6.4-18.3,10.3c-6,3.9-11.4,8.2-16.1,12.4c-0.5-13.5,0.1-25.5,2-30.5C85.9,45.7,86,45.7,86.1,45.7 M86.1,32.7c-3.3,0-6.1,0.5-7.9,1.7c-12.3,8.1-5.8,61.8-5.8,61.8c-0.3,2.8,1.2,5,4,5.9c0,0,13.1-15.7,30.8-27.4c17.9-11.8,40.5-19.5,40.5-19.5c0.3-2.8-1.2-5-3.9-5.9C143.7,49.4,105.1,32.7,86.1,32.7L86.1,32.7z"/><path fill="#000000" d="M221.1,45.7c0.1,0,0.2,0,0.3,0c1.7,4.8,2.4,16.2,2,29.1c-4.6-4.3-9.9-8.6-15.7-12.4c-5.6-3.7-11.5-6.8-17.2-9.5C202,49,214.1,45.7,221.1,45.7 M221.1,32.7c-19,0-57.6,16.7-57.6,16.7c-2.8,0.8-4.2,3-4,5.9c0,0,22.7,6,41,18.1c17.3,11.4,30.3,28.8,30.3,28.8c2.8-0.8,4.2-3,4-5.9c0,0,6.5-53.7-5.7-61.8C227.1,33.2,224.4,32.7,221.1,32.7L221.1,32.7z"/><path fill="#000000" d="M63.9,127.5c0,3.8,3,6.8,6.8,6.8s6.8-3,6.8-6.8c0-3.8-3-6.8-6.8-6.8S63.9,123.7,63.9,127.5L63.9,127.5L63.9,127.5z"/><path fill="#000000" d="M77.2,128.3"/><path fill="#000000" d="M77.2,127.9"/><path fill="#000000" d="M77.2,127.9"/></g></g>
</svg>